<?xml version="1.0"?>
<svg xmlns="http://www.w3.org/2000/svg" height="512px" viewBox="0 0 480 480" width="512px" class=""><g><path d="m480 240c0 132.546875-107.453125 240-240 240s-240-107.453125-240-240 107.453125-240 240-240 240 107.453125 240 240zm0 0" fill="#ffde55" data-original="#FFDE55" class="active-path" style="fill:#39575E" data-old_color="#FFDE55"/><path d="m160 368c-4.242188 0-8.3125-1.6875-11.3125-4.6875l-64-64c-6.0625-6.277344-5.976562-16.257812.195312-22.429688 6.171876-6.171874 16.152344-6.257812 22.429688-.195312l52.6875 52.6875 197.824219-197.824219c6.277343-6.0625 16.257812-5.976562 22.429687.195313s6.257813 16.152344.195313 22.429687l-209.136719 209.136719c-3 3-7.070312 4.6875-11.3125 4.6875zm0 0" fill="#ff5023" data-original="#FF5023" class="" style="fill:#FDFCFB" data-old_color="#EAE8E8"/></g> </svg>
