<?xml version="1.0"?>
<svg xmlns="http://www.w3.org/2000/svg" xmlns:xlink="http://www.w3.org/1999/xlink" version="1.1" id="Layer_1_1_" x="0px" y="0px" viewBox="0 0 64 64" style="enable-background:new 0 0 64 64;" xml:space="preserve" width="512px" height="512px" class=""><g><g>
	<g>
		<rect x="14" y="46" style="fill:#39575E" width="20" height="12" data-original="#F0BC5E" class="active-path" data-old_color="#F0BC5E"/>
	</g>
	<g>
		<rect x="38" y="46" style="fill:#39575E" width="12" height="12" data-original="#F0BC5E" class="active-path" data-old_color="#F0BC5E"/>
	</g>
	<g>
		<rect x="2" y="15" style="fill:#39575E" width="60" height="24" data-original="#F0BC5E" class="active-path" data-old_color="#F0BC5E"/>
	</g>
	<g>
		<path d="M63,1H1v52h8v7c0,1.654,1.346,3,3,3h40c1.654,0,3-1.346,3-3v-7h8V1z M61,3v6H3V3H61z M53,60c0,0.551-0.449,1-1,1H12    c-0.551,0-1-0.449-1-1V44c0-0.551,0.449-1,1-1h13.789c0.595,0,1.17-0.174,1.664-0.504l1.992-1.328h0C29.61,41.058,29.802,41,30,41    h22c0.551,0,1,0.449,1,1V60z M55,51v-9c0-1.654-1.346-3-3-3H30c-0.594,0-1.17,0.174-1.664,0.504l-1.993,1.328    C26.179,40.942,25.987,41,25.789,41H12c-1.654,0-3,1.346-3,3v7H3V11h58v40H55z" data-original="#000000" class="" style="fill:#000000"/>
		<rect x="5" y="5" width="2" height="2" data-original="#000000" class="" style="fill:#000000"/>
		<rect x="9" y="5" width="2" height="2" data-original="#000000" class="" style="fill:#000000"/>
		<rect x="13" y="5" width="2" height="2" data-original="#000000" class="" style="fill:#000000"/>
		<path d="M13,59h22V45H13V59z M15,55h2v2h-2V55z M29,53h-2v-2h2V53z M31,51h2v2h-2V51z M23,53v-2h2v2H23z M29,55v2H19v-2H29z     M27,49v-2h2v2H27z M25,49h-2v-2h2V49z M21,49h-2v-2h2V49z M21,51v2h-2v-2H21z M17,53h-2v-2h2V53z M31,57v-2h2v2H31z M33,49h-2v-2    h2V49z M17,47v2h-2v-2H17z" data-original="#000000" class="" style="fill:#000000"/>
		<path d="M37,59h14V45H37V59z M39,55h2v2h-2V55z M45,51v2h-2v-2H45z M43,49v-2h2v2H43z M47,51h2v2h-2V51z M45,55v2h-2v-2H45z     M41,53h-2v-2h2V53z M47,57v-2h2v2H47z M49,49h-2v-2h2V49z M41,47v2h-2v-2H41z" data-original="#000000" class="" style="fill:#000000"/>
		<polygon points="37.375,19.196 46.399,26.415 37.375,33.634 38.625,35.196 49.601,26.415 38.625,17.634   " data-original="#000000" class="" style="fill:#000000"/>
		<polygon points="25.375,17.634 14.399,26.415 25.375,35.196 26.625,33.634 17.601,26.415 26.625,19.196   " data-original="#000000" class="" style="fill:#000000"/>
		<rect x="21" y="25.415" transform="matrix(0.3218 -0.9468 0.9468 0.3218 -3.3073 48.2129)" width="22" height="2" data-original="#000000" class="" style="fill:#000000"/>
	</g>
</g></g> </svg>
