<?xml version="1.0"?>
<svg xmlns="http://www.w3.org/2000/svg" height="512px" viewBox="0 0 512 512" width="512px" class=""><g><path d="m353.101562 476.691406c-39.035156 0-52.964843-22.757812-52.964843-61.792968v-8.828126h-88.273438v8.828126c0 39.035156-13.929687 61.792968-52.964843 61.792968l17.652343 17.652344h167.726563zm0 0" fill="#afb6bb" data-original="#AFB6BB" class=""/><path d="m512 344.277344h-512v-316.242188c0-15.480468 12.554688-28.035156 28.035156-28.035156h455.9375c15.472656 0 28.027344 12.554688 28.027344 28.035156zm0 0" fill="#28384c" data-original="#28384C" class="" style="fill:#39575E" data-old_color="#28384C"/><path d="m0 308.964844v77.894531c0 15.484375 12.554688 28.039063 28.035156 28.039063h455.929688c15.480468 0 28.035156-12.554688 28.035156-28.039063v-77.894531zm0 0" fill="#e7eced" data-original="#E7ECED" class=""/><path d="m238.34375 344.277344h35.3125v35.308594h-35.3125zm0 0" fill="#28384c" data-original="#28384C" class="" style="fill:#39575E" data-old_color="#28384C"/><path d="m388.414062 512h-264.828124v-17.671875c0-9.738281 7.902343-17.636719 17.636718-17.636719h229.554688c9.734375 0 17.636718 7.898438 17.636718 17.636719zm0 0" fill="#e7eced" data-original="#E7ECED" class=""/><g fill="#ebba16"><path d="m128.785156 233.285156-75.820312-74.503906 75.820312-74.511719c6.902344-6.78125 17.972656-6.738281 24.816406.105469 6.9375 6.9375 6.875 18.21875-.152343 25.070312l-47.519531 49.335938 47.511718 49.328125c7.027344 6.859375 7.097656 18.132813.148438 25.070313-6.832032 6.84375-17.910156 6.894531-24.804688.105468zm0 0" data-original="#000000" class="active-path" style="fill:#FFFFFF" data-old_color="#ffffff"/><path d="m383.214844 233.285156 75.820312-74.503906-75.820312-74.511719c-6.902344-6.78125-17.972656-6.738281-24.816406.105469-6.9375 6.9375-6.875 18.21875.152343 25.070312l47.519531 49.335938-47.511718 49.328125c-7.027344 6.859375-7.097656 18.132813-.148438 25.070313 6.832032 6.84375 17.910156 6.894531 24.804688.105468zm0 0" data-original="#000000" class="active-path" style="fill:#FFFFFF" data-old_color="#ffffff"/><path d="m221.90625 236.191406c-8.992188-4.539062-12.628906-15.679687-8.074219-24.789062l60.960938-122.128906c4.484375-8.996094 15.253906-12.625 24.136719-8.148438 8.996093 4.539062 12.632812 15.679688 8.074218 24.789062l-60.960937 122.128907c-4.484375 8.996093-15.253907 12.625-24.136719 8.148437zm0 0" data-original="#000000" class="active-path" style="fill:#FFFFFF" data-old_color="#ffffff"/></g></g> </svg>
